<svg width="26" height="26" viewBox="0 0 26 26" fill="none" xmlns="http://www.w3.org/2000/svg">
<g clip-path="url(#clip0_72_964)">
<path d="M7.80232 26C7.08711 26 6.47506 25.7456 5.96618 25.2369C5.45642 24.7273 5.20155 24.115 5.20155 23.4C5.20155 22.685 5.45642 22.0727 5.96618 21.5631C6.47506 21.0544 7.08711 20.8 7.80232 20.8C8.51754 20.8 9.12958 21.0544 9.63847 21.5631C10.1482 22.0727 10.4031 22.685 10.4031 23.4C10.4031 24.115 10.1482 24.7273 9.63847 25.2369C9.12958 25.7456 8.51754 26 7.80232 26ZM20.8062 26C20.091 26 19.4789 25.7456 18.97 25.2369C18.4603 24.7273 18.2054 24.115 18.2054 23.4C18.2054 22.685 18.4603 22.0727 18.97 21.5631C19.4789 21.0544 20.091 20.8 20.8062 20.8C21.5214 20.8 22.1339 21.0544 22.6436 21.5631C23.1525 22.0727 23.407 22.685 23.407 23.4C23.407 24.115 23.1525 24.7273 22.6436 25.2369C22.1339 25.7456 21.5214 26 20.8062 26ZM7.80232 19.5C6.82703 19.5 6.09015 19.0719 5.59166 18.2156C5.09318 17.3602 5.07151 16.51 5.52664 15.665L7.28217 12.48L2.60077 2.6H1.26788C0.899434 2.6 0.596011 2.4752 0.357606 2.2256C0.119202 1.97687 0 1.66833 0 1.3C0 0.931667 0.124837 0.6227 0.374511 0.3731C0.623319 0.124367 0.931944 0 1.30039 0H3.41352C3.65192 0 3.87949 0.0650001 4.09622 0.195C4.31295 0.325 4.4755 0.509167 4.58386 0.7475L5.46163 2.6H24.6423C25.2275 2.6 25.6285 2.81667 25.8452 3.25C26.0619 3.68333 26.0511 4.13833 25.8127 4.615L21.1963 12.935C20.9579 13.3683 20.6436 13.7042 20.2535 13.9425C19.8634 14.1808 19.4191 14.3 18.9206 14.3H9.23275L7.80232 16.9H22.1391C22.5075 16.9 22.811 17.0244 23.0494 17.2731C23.2878 17.5227 23.407 17.8317 23.407 18.2C23.407 18.5683 23.2821 18.8769 23.0325 19.1256C22.7836 19.3752 22.475 19.5 22.1066 19.5H7.80232Z" fill="black"/>
</g>
<defs>
<clipPath id="clip0_72_964">
<rect width="26" height="26" fill="white"/>
</clipPath>
</defs>
</svg>
