<svg width="80" height="26" viewBox="0 0 80 26" fill="none" xmlns="http://www.w3.org/2000/svg">
<path d="M7.80232 26C7.08711 26 6.47506 25.7456 5.96618 25.2369C5.45642 24.7273 5.20155 24.115 5.20155 23.4C5.20155 22.685 5.45642 22.0727 5.96618 21.5631C6.47506 21.0544 7.08711 20.8 7.80232 20.8C8.51754 20.8 9.12958 21.0544 9.63847 21.5631C10.1482 22.0727 10.4031 22.685 10.4031 23.4C10.4031 24.115 10.1482 24.7273 9.63847 25.2369C9.12958 25.7456 8.51754 26 7.80232 26ZM20.8062 26C20.091 26 19.4789 25.7456 18.97 25.2369C18.4603 24.7273 18.2054 24.115 18.2054 23.4C18.2054 22.685 18.4603 22.0727 18.97 21.5631C19.4789 21.0544 20.091 20.8 20.8062 20.8C21.5214 20.8 22.1339 21.0544 22.6436 21.5631C23.1525 22.0727 23.407 22.685 23.407 23.4C23.407 24.115 23.1525 24.7273 22.6436 25.2369C22.1339 25.7456 21.5214 26 20.8062 26ZM7.80232 19.5C6.82703 19.5 6.09015 19.0719 5.59166 18.2156C5.09318 17.3602 5.07151 16.51 5.52664 15.665L7.28217 12.48L2.60077 2.6H1.26788C0.899434 2.6 0.596011 2.4752 0.357606 2.2256C0.119202 1.97687 0 1.66833 0 1.3C0 0.931667 0.124837 0.6227 0.374511 0.3731C0.623319 0.124367 0.931944 0 1.30039 0H3.41352C3.65192 0 3.87949 0.0650001 4.09622 0.195C4.31295 0.325 4.4755 0.509167 4.58386 0.7475L5.46163 2.6H24.6423C25.2275 2.6 25.6285 2.81667 25.8452 3.25C26.0619 3.68333 26.0511 4.13833 25.8127 4.615L21.1963 12.935C20.9579 13.3683 20.6436 13.7042 20.2535 13.9425C19.8634 14.1808 19.4191 14.3 18.9206 14.3H9.23275L7.80232 16.9H22.1391C22.5075 16.9 22.811 17.0244 23.0494 17.2731C23.2878 17.5227 23.407 17.8317 23.407 18.2C23.407 18.5683 23.2821 18.8769 23.0325 19.1256C22.7836 19.3752 22.475 19.5 22.1066 19.5H7.80232Z" fill="black"/>
<path d="M61.8023 26C61.0871 26 60.4751 25.7456 59.9662 25.2369C59.4564 24.7273 59.2015 24.115 59.2015 23.4C59.2015 22.685 59.4564 22.0727 59.9662 21.5631C60.4751 21.0544 61.0871 20.8 61.8023 20.8C62.5175 20.8 63.1296 21.0544 63.6385 21.5631C64.1482 22.0727 64.4031 22.685 64.4031 23.4C64.4031 24.115 64.1482 24.7273 63.6385 25.2369C63.1296 25.7456 62.5175 26 61.8023 26ZM74.8062 26C74.091 26 73.4789 25.7456 72.97 25.2369C72.4603 24.7273 72.2054 24.115 72.2054 23.4C72.2054 22.685 72.4603 22.0727 72.97 21.5631C73.4789 21.0544 74.091 20.8 74.8062 20.8C75.5214 20.8 76.1339 21.0544 76.6436 21.5631C77.1525 22.0727 77.407 22.685 77.407 23.4C77.407 24.115 77.1525 24.7273 76.6436 25.2369C76.1339 25.7456 75.5214 26 74.8062 26ZM61.8023 19.5C60.827 19.5 60.0901 19.0719 59.5917 18.2156C59.0932 17.3602 59.0715 16.51 59.5266 15.665L61.2822 12.48L56.6008 2.6H55.2679C54.8994 2.6 54.596 2.4752 54.3576 2.2256C54.1192 1.97687 54 1.66833 54 1.3C54 0.931667 54.1248 0.6227 54.3745 0.3731C54.6233 0.124367 54.9319 0 55.3004 0H57.4135C57.6519 0 57.8795 0.0650001 58.0962 0.195C58.313 0.325 58.4755 0.509167 58.5839 0.7475L59.4616 2.6H78.6423C79.2275 2.6 79.6285 2.81667 79.8452 3.25C80.0619 3.68333 80.0511 4.13833 79.8127 4.615L75.1963 12.935C74.9579 13.3683 74.6436 13.7042 74.2535 13.9425C73.8634 14.1808 73.4191 14.3 72.9206 14.3H63.2327L61.8023 16.9H76.1391C76.5075 16.9 76.811 17.0244 77.0494 17.2731C77.2878 17.5227 77.407 17.8317 77.407 18.2C77.407 18.5683 77.2821 18.8769 77.0325 19.1256C76.7836 19.3752 76.475 19.5 76.1066 19.5H61.8023Z" fill="black" fill-opacity="0.5"/>
</svg>
